<svg xmlns="http://www.w3.org/2000/svg" viewBox="0 0 16 16" shape-rendering="crispEdges">
  <!-- Outline — rounder silhouette -->
  <rect x="5" y="0" width="6" height="1" fill="#111"/>
  <rect x="3" y="1" width="2" height="1" fill="#111"/>
  <rect x="11" y="1" width="2" height="1" fill="#111"/>
  <rect x="2" y="2" width="1" height="1" fill="#111"/>
  <rect x="13" y="2" width="1" height="1" fill="#111"/>
  <rect x="1" y="3" width="1" height="1" fill="#111"/>
  <rect x="14" y="3" width="1" height="1" fill="#111"/>
  <rect x="0" y="4" width="1" height="3" fill="#111"/>
  <rect x="15" y="4" width="1" height="3" fill="#111"/>
  <rect x="0" y="9" width="1" height="3" fill="#111"/>
  <rect x="15" y="9" width="1" height="3" fill="#111"/>
  <rect x="1" y="12" width="1" height="1" fill="#111"/>
  <rect x="14" y="12" width="1" height="1" fill="#111"/>
  <rect x="2" y="13" width="1" height="1" fill="#111"/>
  <rect x="13" y="13" width="1" height="1" fill="#111"/>
  <rect x="3" y="14" width="2" height="1" fill="#111"/>
  <rect x="11" y="14" width="2" height="1" fill="#111"/>
  <rect x="5" y="15" width="6" height="1" fill="#111"/>
  <!-- Red top half -->
  <rect x="5" y="1" width="6" height="1" fill="#c22a2a"/>
  <rect x="3" y="2" width="10" height="1" fill="#c22a2a"/>
  <rect x="2" y="3" width="12" height="1" fill="#c22a2a"/>
  <rect x="1" y="4" width="14" height="3" fill="#c22a2a"/>
  <!-- Highlight -->
  <rect x="4" y="2" width="2" height="1" fill="#fff"/>
  <rect x="3" y="3" width="2" height="1" fill="#fff"/>
  <rect x="2" y="4" width="1" height="1" fill="#fff"/>
  <!-- Center band (black) -->
  <rect x="0" y="7" width="16" height="2" fill="#111"/>
  <!-- Center button -->
  <rect x="6" y="6" width="4" height="4" fill="#111"/>
  <rect x="7" y="7" width="2" height="2" fill="#e0e0e0"/>
  <!-- White bottom half -->
  <rect x="1" y="9" width="5" height="3" fill="#fff"/>
  <rect x="10" y="9" width="5" height="3" fill="#fff"/>
  <rect x="2" y="12" width="12" height="1" fill="#fff"/>
  <rect x="3" y="13" width="10" height="1" fill="#fff"/>
  <rect x="5" y="14" width="6" height="1" fill="#fff"/>
  <!-- Bottom shadow -->
  <rect x="2" y="12" width="1" height="1" fill="#bbb"/>
  <rect x="13" y="12" width="1" height="1" fill="#bbb"/>
  <rect x="3" y="13" width="1" height="1" fill="#bbb"/>
  <rect x="12" y="13" width="1" height="1" fill="#bbb"/>
</svg>
