<svg xmlns="http://www.w3.org/2000/svg" viewBox="0 0 512 512" width="512" height="512">
  <!-- Background with gradient -->
  <defs>
    <linearGradient id="bg" x1="0%" y1="0%" x2="100%" y2="100%">
      <stop offset="0%" style="stop-color:#ef4444"/>
      <stop offset="100%" style="stop-color:#dc2626"/>
    </linearGradient>
  </defs>

  <!-- Rounded rectangle background -->
  <rect width="512" height="512" rx="80" ry="80" fill="url(#bg)"/>

  <!-- Pokeball decorative element -->
  <circle cx="256" cy="256" r="180" fill="none" stroke="white" stroke-width="8" opacity="0.2"/>
  <line x1="76" y1="256" x2="436" y2="256" stroke="white" stroke-width="8" opacity="0.2"/>
  <circle cx="256" cy="256" r="50" fill="none" stroke="white" stroke-width="8" opacity="0.2"/>

  <!-- Pikachu pixel art recreated in SVG for better PWA support -->
  <g transform="translate(106, 96) scale(0.8)">
    <!-- Black outline pixels -->
    <rect x="120" y="0" width="30" height="15" fill="#000"/>
    <rect x="150" y="15" width="15" height="15" fill="#000"/>
    <rect x="165" y="30" width="15" height="15" fill="#000"/>
    <rect x="180" y="45" width="15" height="45" fill="#000"/>
    <rect x="195" y="90" width="15" height="15" fill="#000"/>
    <rect x="210" y="105" width="15" height="15" fill="#000"/>
    <rect x="225" y="60" width="15" height="45" fill="#000"/>
    <rect x="240" y="45" width="15" height="15" fill="#000"/>
    <rect x="255" y="30" width="15" height="15" fill="#000"/>
    <rect x="270" y="15" width="15" height="30" fill="#000"/>
    <rect x="285" y="45" width="15" height="30" fill="#000"/>
    <rect x="300" y="75" width="15" height="15" fill="#000"/>
    <rect x="315" y="90" width="15" height="15" fill="#000"/>
    <rect x="330" y="75" width="15" height="30" fill="#000"/>
    <rect x="345" y="60" width="15" height="15" fill="#000"/>
    <rect x="315" y="105" width="15" height="30" fill="#000"/>
    <rect x="300" y="135" width="15" height="15" fill="#000"/>
    <rect x="315" y="150" width="15" height="15" fill="#000"/>
    <rect x="330" y="165" width="30" height="15" fill="#000"/>
    <rect x="360" y="180" width="15" height="45" fill="#000"/>
    <rect x="345" y="225" width="15" height="15" fill="#000"/>
    <rect x="330" y="240" width="15" height="15" fill="#000"/>
    <rect x="315" y="255" width="15" height="15" fill="#000"/>
    <rect x="300" y="270" width="15" height="15" fill="#000"/>
    <rect x="270" y="285" width="30" height="15" fill="#000"/>
    <rect x="240" y="300" width="30" height="15" fill="#000"/>
    <rect x="210" y="315" width="30" height="15" fill="#000"/>
    <rect x="225" y="300" width="15" height="15" fill="#000"/>
    <rect x="195" y="285" width="15" height="30" fill="#000"/>
    <rect x="180" y="270" width="15" height="15" fill="#000"/>
    <rect x="165" y="255" width="15" height="15" fill="#000"/>
    <rect x="150" y="285" width="15" height="15" fill="#000"/>
    <rect x="135" y="300" width="15" height="15" fill="#000"/>
    <rect x="120" y="315" width="15" height="15" fill="#000"/>
    <rect x="90" y="300" width="30" height="15" fill="#000"/>
    <rect x="75" y="285" width="15" height="15" fill="#000"/>
    <rect x="60" y="270" width="15" height="15" fill="#000"/>
    <rect x="45" y="255" width="15" height="15" fill="#000"/>
    <rect x="30" y="225" width="15" height="30" fill="#000"/>
    <rect x="15" y="195" width="15" height="30" fill="#000"/>
    <rect x="0" y="150" width="15" height="45" fill="#000"/>
    <rect x="15" y="135" width="15" height="15" fill="#000"/>
    <rect x="30" y="120" width="15" height="15" fill="#000"/>
    <rect x="45" y="105" width="15" height="15" fill="#000"/>
    <rect x="60" y="90" width="15" height="15" fill="#000"/>
    <rect x="75" y="60" width="15" height="30" fill="#000"/>
    <rect x="90" y="30" width="15" height="30" fill="#000"/>
    <rect x="105" y="15" width="15" height="15" fill="#000"/>

    <!-- Yellow body -->
    <rect x="120" y="15" width="30" height="15" fill="#FFE733"/>
    <rect x="105" y="30" width="60" height="15" fill="#FFE733"/>
    <rect x="90" y="45" width="30" height="15" fill="#FFE733"/>
    <rect x="90" y="60" width="135" height="15" fill="#FFE733"/>
    <rect x="90" y="75" width="150" height="15" fill="#FFE733"/>
    <rect x="75" y="90" width="150" height="15" fill="#FFE733"/>
    <rect x="60" y="105" width="165" height="15" fill="#FFE733"/>
    <rect x="45" y="120" width="180" height="15" fill="#FFE733"/>
    <rect x="30" y="135" width="195" height="15" fill="#FFE733"/>
    <rect x="15" y="150" width="210" height="15" fill="#FFE733"/>
    <rect x="15" y="165" width="225" height="15" fill="#FFE733"/>
    <rect x="30" y="180" width="225" height="15" fill="#FFE733"/>
    <rect x="30" y="195" width="225" height="15" fill="#FFE733"/>
    <rect x="45" y="210" width="210" height="15" fill="#FFE733"/>
    <rect x="45" y="225" width="195" height="15" fill="#FFE733"/>
    <rect x="60" y="240" width="180" height="15" fill="#FFE733"/>
    <rect x="75" y="255" width="90" height="15" fill="#FFE733"/>
    <rect x="180" y="255" width="120" height="15" fill="#FFE733"/>
    <rect x="90" y="270" width="60" height="15" fill="#FFE733"/>
    <rect x="195" y="270" width="75" height="15" fill="#FFE733"/>
    <rect x="105" y="285" width="45" height="15" fill="#FFE733"/>
    <rect x="210" y="285" width="45" height="15" fill="#FFE733"/>
    <rect x="135" y="300" width="60" height="15" fill="#FFE733"/>

    <!-- Red cheeks -->
    <rect x="45" y="165" width="30" height="30" fill="#E33"/>
    <rect x="270" y="165" width="30" height="30" fill="#E33"/>

    <!-- Brown ear tips -->
    <rect x="90" y="15" width="15" height="15" fill="#8B4513"/>
    <rect x="105" y="0" width="15" height="15" fill="#8B4513"/>
    <rect x="255" y="45" width="15" height="15" fill="#8B4513"/>
    <rect x="240" y="60" width="15" height="15" fill="#8B4513"/>

    <!-- Eyes -->
    <rect x="105" y="120" width="30" height="30" fill="#000"/>
    <rect x="195" y="120" width="30" height="30" fill="#000"/>
    <rect x="105" y="120" width="15" height="15" fill="#FFF"/>
    <rect x="195" y="120" width="15" height="15" fill="#FFF"/>

    <!-- Mouth -->
    <rect x="135" y="180" width="15" height="15" fill="#000"/>
    <rect x="150" y="195" width="45" height="15" fill="#000"/>

    <!-- Tail highlight -->
    <rect x="300" y="120" width="15" height="15" fill="#FFF8DC"/>
    <rect x="315" y="135" width="15" height="15" fill="#FFF8DC"/>
    <rect x="330" y="150" width="15" height="15" fill="#FFF8DC"/>
    <rect x="345" y="165" width="15" height="15" fill="#FFF8DC"/>
    <rect x="345" y="180" width="15" height="30" fill="#FFF8DC"/>
  </g>
</svg>
